<svg xmlns="http://www.w3.org/2000/svg" width="120" height="109.82" viewBox="0 0 120 109.82">
  <g id="Group_13" data-name="Group 13" transform="translate(-441.467 -407.283)">
    <path id="Path_44" data-name="Path 44" d="M523.719,483.732a15.342,15.342,0,0,1-6.069-3.966,13.96,13.96,0,0,1-3.78-8.263,12.7,12.7,0,0,1,1.484-8,7.24,7.24,0,0,1,4.676-3.633,7.776,7.776,0,0,1,7.483,2.191,11.1,11.1,0,0,1,3.136,6.253,24.534,24.534,0,0,1-1.236,12.324,3.663,3.663,0,0,0-.112.352.819.819,0,0,0,.026.2,9.706,9.706,0,0,0,6.587-2.921c.25-.279.25-.779.376-1.172q1.8-5.607,3.606-11.213c.089-.276.152-.562.251-.93-1.07-.141-2.09-.305-3.116-.4a.794.794,0,0,1-.835-.9,5.551,5.551,0,0,1,.037-.816c.169-1.141.4-1.291,1.527-1.139,1,.135,2.008.261,3.017.324a.8.8,0,0,0,.586-.452c.671-1.856,1.3-3.729,1.945-5.594s1.3-3.734,1.972-5.591a1.093,1.093,0,0,1,.517-.584,9.627,9.627,0,0,1,5.328-.884,1.361,1.361,0,0,1,1.17,1.906c-.514,1.621-1.084,3.226-1.68,4.819-.89,2.381-1.823,4.746-2.789,7.254,1.142.113,2.185.213,3.227.322,1.8.187,3.588.393,5.385.564.622.06.892.376.844.967a5.571,5.571,0,0,1-.2,1.237c-.308.963-.655,1.119-1.675.975-2.882-.407-5.768-.79-8.705-1.189-.89,2.776-1.889,5.468-2.6,8.233-.864,3.341-1.595,6.726-2.178,10.128a12.15,12.15,0,0,0,.781,7.484,3.076,3.076,0,0,0,4.08,1.628,9.67,9.67,0,0,0,3.988-2.86,38.628,38.628,0,0,0,6.495-10.9c.64-1.526,1.265-3.06,1.832-4.615.243-.668.593-.737,1.181-.517,1.364.509,1.389.505.893,1.9a58.843,58.843,0,0,1-6.059,12.6,19.692,19.692,0,0,1-6.749,6.747,8.724,8.724,0,0,1-12.346-4.626,19.048,19.048,0,0,1-.821-7.546c.01-.218,0-.438,0-.752-.52.264-.985.51-1.458.739a11.472,11.472,0,0,1-5.4,1.077,1.025,1.025,0,0,0-1.068.568,18.463,18.463,0,0,1-6.983,7.084,11.6,11.6,0,0,1-7.263,1.475c-4.439-.557-7.328-3.1-9.324-6.942-.672,1.265-1.284,2.524-1.994,3.725a12.486,12.486,0,0,1-4.5,4.618,8.138,8.138,0,0,1-9.475-1.257,12.07,12.07,0,0,1-2.953-4.728c-.064-.188-.133-.373-.209-.556-.016-.037-.072-.057-.166-.128-.419,1.085-.771,2.18-1.256,3.212-1.166,2.486-2.717,4.651-5.536,5.422a6.8,6.8,0,0,1-7.172-2,12.665,12.665,0,0,1-3.059-6.729,49.909,49.909,0,0,1-.509-10.733c.133-3.414.156-6.833.184-10.251.006-.649.073-1.137.714-1.475,1.063-.56,2.05-1.276,3.14-1.772,1.659-.756,2.8-.065,2.8,1.733.007,2.222-.105,4.447-.235,6.667-.3,5.069-.56,10.14.292,15.18a11.216,11.216,0,0,0,1.651,4.5c1.147,1.7,3.012,1.9,4.244.257a12.633,12.633,0,0,0,1.934-3.618,43.474,43.474,0,0,0,1.6-6.608c.286-1.845.11-3.756.262-5.627.283-3.5.573-6.995,1.015-10.473.407-3.205.9-6.41,1.566-9.57.809-3.837,1.8-7.638,2.793-11.434.485-1.858,1.174-3.663,1.721-5.506a3.23,3.23,0,0,1,1.418-1.826c1.179-.763,2.372-1.514,3.612-2.17a2.426,2.426,0,0,1,3.212.54,12.468,12.468,0,0,1,3.281,5.716,24.358,24.358,0,0,1,1.067,7.527,30.828,30.828,0,0,1-1.361,8.6,27.858,27.858,0,0,1-3.233,6.967A18.331,18.331,0,0,1,490.517,472a.8.8,0,0,0-.568.877c-.022,2.436-.173,4.876-.088,7.308a22.82,22.82,0,0,0,1.926,9.515,6.7,6.7,0,0,0,1.6,2.09,3.259,3.259,0,0,0,4.278-.255,11.9,11.9,0,0,0,3.044-4.236c.65-1.409,1.15-2.888,1.682-4.348a2.394,2.394,0,0,0,.064-.947,20.733,20.733,0,0,1,1.646-10.507,16.518,16.518,0,0,1,7.991-8.142c.511-.241.9-.233,1.1.374.141.427.826.856.287,1.292a11.764,11.764,0,0,0-3.794,6.782,24.086,24.086,0,0,0-.8,4.887c-.117,3.889.442,7.671,2.9,10.879,2.419,3.159,6.377,3.242,9.173.491A13.171,13.171,0,0,0,523.719,483.732Zm-27.973-42.8-.259.105a161.084,161.084,0,0,0-5.208,28.148,3.794,3.794,0,0,0,.386-.126,4.9,4.9,0,0,0,.459-.242,14.271,14.271,0,0,0,5.768-7.04,24.3,24.3,0,0,0,1.764-6.7,22.27,22.27,0,0,0-1.445-11.55A26.12,26.12,0,0,0,495.746,440.93Zm29.17,39.313c.2-1.583.5-3.042.534-4.508a18.709,18.709,0,0,0-1.191-7.192,8.85,8.85,0,0,0-2.54-4.008,2.446,2.446,0,0,0-3.873.55,8.184,8.184,0,0,0-.925,6.085,11.972,11.972,0,0,0,4.407,7.157A8.936,8.936,0,0,0,524.916,480.243Z" fill="#dbdbdb"/>
    <path id="Path_45" data-name="Path 45" d="M448.56,442.272c-.1,1.3-.264,2.5-.281,3.7-.04,2.917-.068,5.835.008,8.75.049,1.851.265,3.7.455,5.544.179,1.744.368,3.49.649,5.219.5,3.069.955,6.152,1.64,9.182.77,3.414,1.674,6.806,2.711,10.147a42.634,42.634,0,0,0,2.515,6.082,18.781,18.781,0,0,0,7.589,8.3,6.131,6.131,0,0,1,.96.691,1.012,1.012,0,0,1-.105,1.768,2.284,2.284,0,0,1-.814.334,10.212,10.212,0,0,1-7.265-1.342,15.758,15.758,0,0,1-6.571-7.955,79.77,79.77,0,0,1-3.92-12.585c-.832-3.633-1.53-7.3-2.285-10.948a106.537,106.537,0,0,1-1.918-14.384c-.168-2.466-.212-4.941-.443-7.4a2.815,2.815,0,0,1,1.632-2.968c1.57-.815,3.248-1.42,4.885-2.1A2.08,2.08,0,0,1,448.56,442.272Z" fill="#dbdbdb"/>
    <path id="Path_46" data-name="Path 46" d="M503.334,407.283A9.58,9.58,0,0,1,510.071,410c4.236,3.682,7.374,8.251,10.265,12.983,2.591,4.24,5.018,8.582,7.464,12.908.973,1.721,1.792,3.528,2.7,5.286a2.173,2.173,0,1,1-3.849,2.017c-1.074-2.006-2.031-4.076-3.149-6.056-2.347-4.154-4.689-8.315-7.179-12.383a57.872,57.872,0,0,0-6.723-9.111,40.4,40.4,0,0,0-3.075-2.9c-1.471-1.291-3.093-1.25-4.844-.551a34.632,34.632,0,0,0-8.079,4.66c-4.036,3.064-8.025,6.2-11.9,9.465-3.076,2.6-5.955,5.426-8.909,8.167a2.189,2.189,0,1,1-3.07-3.1c3.066-2.837,6.077-5.741,9.255-8.448q5.5-4.687,11.271-9.064a38.593,38.593,0,0,1,9.71-5.667A30.123,30.123,0,0,1,503.334,407.283Z" fill="#dbdbdb"/>
    <path id="Path_47" data-name="Path 47" d="M507.5,503.306c2.511.218,6.054.351,9.539.876,3.56.536,7.064,1.447,10.587,2.216a1.389,1.389,0,0,1,1.087,1.554,1.706,1.706,0,0,1-1.646,1.437,8.581,8.581,0,0,1-1.588-.25c-3.164-.556-6.321-1.151-9.491-1.661a56.535,56.535,0,0,0-10.656-.584,69.137,69.137,0,0,0-11.041,1.214,61.273,61.273,0,0,0-10.053,2.839,48.43,48.43,0,0,0-10.874,5.555c-1.6,1.124-3.276.657-4.07-1.277a1.131,1.131,0,0,1,.622-1.43c2.4-1.38,4.771-2.8,7.233-4.058a55.344,55.344,0,0,1,11.721-4.181c2.01-.5,4.073-.793,6.109-1.2A79.684,79.684,0,0,1,507.5,503.306Z" fill="#dbdbdb"/>
    <path id="Path_48" data-name="Path 48" d="M476.037,452.505c.3,2.124-2.018,4.321-4.115,4.335a4.467,4.467,0,0,1-4.372-4.232,4.2,4.2,0,0,1,3.743-4.313C474.344,448.293,476.037,449.78,476.037,452.505Z" fill="#dbdbdb"/>
    <path id="Path_49" data-name="Path 49" d="M460.862,445.986a14.7,14.7,0,0,1-2.04,6.705c-.638,1.17-1.338,2.307-2,3.462-.253.439-.567.591-1.033.3-.449-.282-.519-.547-.268-1.083a30.543,30.543,0,0,0,1.877-4.561,5.166,5.166,0,0,0-2.584-6.115c-1.279-.767-1.486-.539-.61-2.1a21.859,21.859,0,0,1,1.3-1.867.775.775,0,0,1,1.088-.256c1.918.858,3.5,2.044,4.1,4.176A7.922,7.922,0,0,1,460.862,445.986Z" fill="#dbdbdb"/>
  </g>
</svg>
