<svg id="logo_insideout" xmlns="http://www.w3.org/2000/svg" width="140" height="105.569" viewBox="0 0 140 105.569">
  <circle id="Ellipse_4" data-name="Ellipse 4" cx="38.919" cy="38.919" r="38.919" transform="translate(50.486 0)" fill="#dbdbdb"/>
  <path id="Path_23" data-name="Path 23" d="M0,0C26.2,0,38.919,12.722,38.919,38.919S26.2,77.838,0,77.838" transform="translate(0 0)" fill="#dbdbdb"/>
  <path id="Path_33" data-name="Path 33" d="M0,0C26.2,0,38.919,12.722,38.919,38.919S26.2,77.838,0,77.838" transform="translate(89.694 0)" fill="#dbdbdb"/>
  <g id="Group_5" data-name="Group 5" transform="translate(38.81 88.622)">
    <path id="Path_24" data-name="Path 24" d="M60.623,155.362V139.157h1.945v16.205Z" transform="translate(-60.623 -138.694)" fill="#dbdbdb"/>
    <path id="Path_25" data-name="Path 25" d="M68.832,157.861V146.379h1.759l.116,2.06a4.176,4.176,0,0,1,1.6-1.713,4.507,4.507,0,0,1,2.362-.625,4.353,4.353,0,0,1,3.253,1.238,5.249,5.249,0,0,1,1.215,3.808v6.714H77.19v-6.5q0-3.589-2.963-3.589a3.2,3.2,0,0,0-2.465,1.077,4.383,4.383,0,0,0-.984,3.068v5.949Z" transform="translate(-63.577 -141.193)" fill="#dbdbdb"/>
    <path id="Path_26" data-name="Path 26" d="M93.564,158.139a5.488,5.488,0,0,1-3.427-1.042,4.061,4.061,0,0,1-1.6-2.824h1.991a2.744,2.744,0,0,0,.961,1.563,3.129,3.129,0,0,0,2.1.66,2.643,2.643,0,0,0,1.805-.521,1.613,1.613,0,0,0,.578-1.239,1.374,1.374,0,0,0-.752-1.389,9.945,9.945,0,0,0-2.118-.625,11.836,11.836,0,0,1-1.852-.533,4.205,4.205,0,0,1-1.552-.983,2.3,2.3,0,0,1-.625-1.679,3.1,3.1,0,0,1,1.123-2.466,4.528,4.528,0,0,1,3.044-.96,4.723,4.723,0,0,1,3,.914,3.651,3.651,0,0,1,1.355,2.6H95.671a2.008,2.008,0,0,0-.753-1.378,2.69,2.69,0,0,0-1.7-.5,2.575,2.575,0,0,0-1.609.44,1.4,1.4,0,0,0-.567,1.158,1.2,1.2,0,0,0,.729,1.088,7.844,7.844,0,0,0,1.98.672,17.385,17.385,0,0,1,2.026.567,3.828,3.828,0,0,1,1.574,1,2.708,2.708,0,0,1,.613,1.91,3.139,3.139,0,0,1-1.17,2.558A4.842,4.842,0,0,1,93.564,158.139Z" transform="translate(-70.668 -141.193)" fill="#dbdbdb"/>
    <path id="Path_27" data-name="Path 27" d="M108.688,141.073a1.306,1.306,0,0,1-1.342-1.342,1.236,1.236,0,0,1,.382-.926,1.416,1.416,0,0,1,1.91,0,1.221,1.221,0,0,1,.393.926,1.283,1.283,0,0,1-.393.96A1.315,1.315,0,0,1,108.688,141.073Zm-.972,14.029V143.62h1.944V155.1Z" transform="translate(-77.435 -138.434)" fill="#dbdbdb"/>
    <path id="Path_28" data-name="Path 28" d="M121.177,155.38a5.623,5.623,0,0,1-3-.787,5.341,5.341,0,0,1-1.991-2.154,6.647,6.647,0,0,1-.707-3.1,6.5,6.5,0,0,1,.718-3.091,5.4,5.4,0,0,1,1.991-2.13,5.67,5.67,0,0,1,3.009-.775,5.249,5.249,0,0,1,2.5.579,4.169,4.169,0,0,1,1.69,1.621v-7.108h1.945V155.1h-1.759l-.186-1.9a5.372,5.372,0,0,1-1.6,1.505A4.738,4.738,0,0,1,121.177,155.38Zm.209-1.69a3.85,3.85,0,0,0,2.049-.544,3.719,3.719,0,0,0,1.389-1.516,5.423,5.423,0,0,0,0-4.538,3.723,3.723,0,0,0-1.389-1.516,3.85,3.85,0,0,0-2.049-.544,3.805,3.805,0,0,0-2.026.544,3.715,3.715,0,0,0-1.389,1.516,5.417,5.417,0,0,0,0,4.538,3.711,3.711,0,0,0,1.389,1.516A3.805,3.805,0,0,0,121.386,153.69Z" transform="translate(-80.362 -138.434)" fill="#dbdbdb"/>
    <path id="Path_29" data-name="Path 29" d="M143.841,158.139a5.627,5.627,0,0,1-2.917-.752,5.337,5.337,0,0,1-2-2.095,6.553,6.553,0,0,1-.729-3.172,6.653,6.653,0,0,1,.718-3.16,5.22,5.22,0,0,1,2-2.107,5.78,5.78,0,0,1,2.974-.752,5.369,5.369,0,0,1,2.883.752,5.1,5.1,0,0,1,1.864,1.979,5.567,5.567,0,0,1,.648,2.639q0,.254-.012.509c-.008.17-.012.363-.012.579h-9.144a4.508,4.508,0,0,0,.614,2.188,3.612,3.612,0,0,0,3.114,1.748,3.484,3.484,0,0,0,2.014-.556,3.179,3.179,0,0,0,1.18-1.505h1.921a5.042,5.042,0,0,1-5.116,3.7Zm0-10.395a3.885,3.885,0,0,0-2.466.845,3.408,3.408,0,0,0-1.239,2.466h7.224a3.289,3.289,0,0,0-1.065-2.431A3.577,3.577,0,0,0,143.841,147.744Z" transform="translate(-88.534 -141.193)" fill="#dbdbdb"/>
    <path id="Path_30" data-name="Path 30" d="M166.719,155.485a8.1,8.1,0,0,1-4.179-1.053,7.317,7.317,0,0,1-2.8-2.952,9.984,9.984,0,0,1,0-8.739,7.423,7.423,0,0,1,2.8-2.952,8.78,8.78,0,0,1,8.381,0,7.344,7.344,0,0,1,2.789,2.952,10.087,10.087,0,0,1,0,8.739,7.239,7.239,0,0,1-2.789,2.952A8.149,8.149,0,0,1,166.719,155.485Zm0-1.713a6.057,6.057,0,0,0,3.137-.8,5.419,5.419,0,0,0,2.107-2.292,8.854,8.854,0,0,0,0-7.142,5.438,5.438,0,0,0-2.107-2.28,6.558,6.558,0,0,0-6.274,0,5.438,5.438,0,0,0-2.107,2.28,8.854,8.854,0,0,0,0,7.142,5.419,5.419,0,0,0,2.107,2.292A6.055,6.055,0,0,0,166.719,153.771Z" transform="translate(-95.925 -138.538)" fill="#dbdbdb"/>
    <path id="Path_31" data-name="Path 31" d="M191.926,158.3a4.311,4.311,0,0,1-3.241-1.238,5.284,5.284,0,0,1-1.2-3.808v-6.714h1.944v6.505q0,3.589,2.94,3.588a3.227,3.227,0,0,0,2.489-1.077,4.385,4.385,0,0,0,.984-3.068v-5.949h1.945v11.482h-1.76l-.139-2.06a4,4,0,0,1-1.586,1.713A4.561,4.561,0,0,1,191.926,158.3Z" transform="translate(-106.269 -141.349)" fill="#dbdbdb"/>
    <path id="Path_32" data-name="Path 32" d="M212.633,156.469a3.714,3.714,0,0,1-2.478-.764,3.473,3.473,0,0,1-.9-2.755v-6.32h-1.991v-1.643h1.991l.254-2.755h1.69v2.755h3.38v1.643H211.2v6.32a1.911,1.911,0,0,0,.44,1.47,2.4,2.4,0,0,0,1.551.382h1.2v1.666Z" transform="translate(-113.387 -139.8)" fill="#dbdbdb"/>
  </g>
  <path id="Path_34" data-name="Path 34" d="M0,0C26.2,0,38.919,12.722,38.919,38.919S26.2,77.838,0,77.838" transform="translate(89.719 77.838) rotate(180)" fill="#dbdbdb"/>
</svg>
